Coordinates
version=1
nRows=19
nColumns=36
inDegrees=yes

Units are S.I. units (second, meters, Newtons, ...)
If the header above contains a line with 'inDegrees', this indicates whether rotational values are in degrees (yes) or radians (no).

endheader
time	pelvis_tilt	pelvis_list	pelvis_rotation	pelvis_tx	pelvis_ty	pelvis_tz	hip_flexion_r	hip_adduction_r	hip_rotation_r	knee_angle_r	knee_angle_r_beta	ankle_angle_r	subtalar_angle_r	mtp_angle_r	hip_flexion_l	hip_adduction_l	hip_rotation_l	knee_angle_l	knee_angle_l_beta	ankle_angle_l	subtalar_angle_l	mtp_angle_l	lumbar_extension	lumbar_bending	lumbar_rotation	arm_flex_r	arm_add_r	arm_rot_r	elbow_flex_r	pro_sup_r	arm_flex_l	arm_add_l	arm_rot_l	elbow_flex_l	pro_sup_l
      0.00000000	     -8.22899724	     -2.30912048	     -1.43906186	      0.73123060	      1.25051238	      0.06838325	      5.13020531	      3.39788447	      6.53869300	      0.44210745	      0.00771623	     -2.36089657	    -17.93267740	     -6.03642980	      5.33108236	     -1.96021311	      6.95498248	      1.76390761	      0.03078600	      3.64688093	    -12.60901260	     -6.03642980	      8.32133407	      2.32770277	      2.53454044	     -0.65864923	     -8.04028866	      6.57692051	     16.16057192	     87.70241868	     -2.54477902	     -6.29811457	      2.92698114	     15.81718504	     88.13863744
      0.01666670	     -7.84380871	     -2.08242895	     -2.36208493	      0.72832481	      1.24840135	      0.06852281	      4.73906375	      3.26563320	      6.81170498	      0.31248326	      0.00545386	     -0.16016456	    -16.62768776	     -6.37882036	      4.34622616	     -1.86248768	      7.03824039	      0.83938567	      0.01465004	      4.20902755	    -11.50144115	     -6.37882036	      8.01449509	      2.21992947	      3.45737548	      0.16981534	     -8.48115230	      8.95064835	     14.87831185	     91.42048566	     -2.48243158	     -6.29156938	      4.31875594	     15.12118216	     90.11367981
      0.03333330	     -6.23613804	     -2.20091867	     -2.15714781	      0.72551831	      1.25094441	      0.06792445	      3.03879500	      3.44349551	      6.39261455	      0.32612858	      0.00569202	      0.88686107	    -16.11348515	     -6.64021483	      2.56199170	     -1.83914905	      6.83187809	      0.62026690	      0.01082570	      3.92832074	    -11.48144741	     -6.64021483	      5.53838212	      2.23156407	      3.33801708	      0.85502952	     -8.76370045	      9.85257296	     14.83721254	     93.56555758	     -1.39876246	     -6.33397588	      5.50741976	     14.80076769	     91.32425540
      0.05000000	     -4.57908309	     -2.14915990	     -2.12155108	      0.72260393	      1.25228671	      0.06735547	      1.37240089	      3.37382354	      5.58474087	      0.36583541	      0.00638503	      1.84824801	    -15.69005468	     -6.87742094	      0.84465065	     -1.65051933	      6.46084366	      0.56435296	      0.00984982	      3.97024089	    -11.47607854	     -6.87742094	      2.89646738	      2.07160917	      3.37358097	      1.64803415	     -8.97165269	     10.63254063	     15.15599989	     92.53874755	     -0.54449213	     -6.29402407	      5.90434485	     14.98803295	     90.05718470
      0.06666670	     -3.18601310	     -2.02492472	     -2.01697794	      0.72043178	      1.25362221	      0.06684193	     -0.02437270	      3.25456071	      4.91678336	      0.43131548	      0.00752788	      3.02042887	    -14.93879532	     -7.06274393	     -0.55396747	     -1.40293492	      6.36101980	      0.55962086	      0.00976723	      3.99599774	    -11.20943625	     -7.06274393	      0.71302541	      1.81473852	      3.50731751	      2.33891623	     -9.23478238	     12.32638645	     15.28840381	     93.23662209	      0.32543977	     -6.42375021	      7.40166787	     15.00604786	     90.59622851
      0.08333330	     -2.34146203	     -1.88437509	     -1.99508597	      0.71846038	      1.25219793	      0.06691900	     -0.83383818	      3.10737365	      4.45829531	      0.51580039	      0.00900242	      3.58285450	    -14.91268828	     -7.26793644	     -1.37374471	     -1.22162801	      6.39978182	      0.56044311	      0.00978158	      3.93972740	    -11.20685264	     -7.26793644	     -0.72644107	      1.57287079	      3.71531055	      2.50776044	     -9.11812415	     10.28242832	     15.79302696	     96.27464750	      0.72994773	     -6.38915812	      5.54951760	     15.49444876	     94.09951315
      0.10000000	     -1.69334748	     -1.79504032	     -1.82698214	      0.71743912	      1.25291178	      0.06670095	     -1.52191892	      3.02185738	      3.78937168	      0.62255744	      0.01086568	      4.13888672	    -14.47683067	     -7.31330925	     -1.98948760	     -1.14111695	      6.50891474	      0.58486971	      0.01020790	      3.88562941	    -11.05045570	     -7.31330925	     -1.80899190	      1.38020071	      3.66932751	      2.79223218	     -9.04405380	     10.49335338	     15.88381409	     93.52315578	      1.12940618	     -6.38066490	      5.49896049	     15.51331367	     91.67623224
      0.11666670	     -1.33176409	     -1.69545871	     -1.78790460	      0.71652052	      1.25347557	      0.06685758	     -1.88919102	      2.94067588	      3.77941585	      0.74006971	      0.01291665	      4.02483868	    -15.18444898	     -7.47468254	     -2.33746695	     -1.07128577	      6.44828838	      0.58992918	      0.01029621	      3.83415349	    -10.80352147	     -7.47468254	     -2.52062622	      1.16533120	      3.89659569	      2.85660883	     -9.18736675	     10.91210836	     16.43254464	     95.01981052	      1.41199735	     -6.71150200	      7.07027557	     15.82182437	     93.66824115
      0.13333330	     -1.27441081	     -1.62936486	     -1.75324386	      0.72271654	      1.25335218	      0.06425250	     -1.99312985	      2.85294164	      3.51707817	      0.85689293	      0.01495560	      4.11781318	    -15.33242029	     -7.47472727	     -2.43892227	     -1.01044177	      6.51913004	      0.58558706	      0.01022042	      3.78984988	    -10.76587933	     -7.47472727	     -2.56663998	      1.12094183	      3.95747915	      2.85311461	     -9.23839990	     10.91681745	     16.44444725	     95.02163425	      1.28830700	     -6.71515207	      7.07401852	     15.79470278	     93.66971053
      0.15000000	     -0.78005529	     -1.54608751	     -1.45961785	      0.71511422	      1.25415138	      0.06673139	     -2.51274739	      2.79537563	      3.05733981	      0.96604823	      0.01686072	      4.24758371	    -15.48476221	     -7.47535058	     -2.88305174	     -0.94690956	      6.87579746	      0.57500247	      0.01003569	      3.73891152	    -10.64531024	     -7.47535058	     -3.52626821	      0.91246471	      3.69945535	      3.05068022	     -9.23618936	     11.05501981	     16.88172954	     95.03056080	      1.62514893	     -6.89224505	      7.22808175	     16.14424626	     93.71866570
      0.16666670	     -0.65719193	     -1.51065407	     -1.30307025	      0.71475912	      1.25408946	      0.06667532	     -2.62043344	      2.78207741	      2.82099238	      1.07514379	      0.01876480	      4.28177151	    -15.68589993	     -7.49039580	     -2.98352085	     -0.93190170	      7.03932994	      0.55934777	      0.00976246	      3.70304078	    -10.58813138	     -7.49039580	     -3.86698608	      0.82582330	      3.58451079	      3.25360133	     -9.52291688	     14.73447111	     16.99111919	     89.98817852	      1.84976476	     -7.30458117	     10.92246724	     16.18569198	     88.99309739
      0.18333330	     -0.50626090	     -1.49370909	     -1.11611348	      0.71434464	      1.25450785	      0.06659603	     -2.81162192	      2.77438011	      2.46993391	      1.11325088	      0.01942989	      4.33786638	    -15.67158770	     -7.49356245	     -3.14018427	     -0.94966457	      6.91948735	      0.54694230	      0.00954594	      3.58154290	    -10.42557378	     -7.49356245	     -4.27172339	      0.76429340	      3.52412766	      3.16629201	     -9.43896777	     14.16423985	     17.45888444	     86.07256845	      2.01178625	     -7.23262883	     10.22122656	     16.61629320	     85.30290655
      0.20000000	     -0.53747275	     -1.49761334	     -1.11997044	      0.72094962	      1.25421049	      0.06396107	     -2.82624041	      2.74973454	      2.46621961	      1.12503448	      0.01963556	      4.33779709	    -15.67466505	     -7.49356285	     -3.17793522	     -0.95743074	      6.91456900	      0.58426783	      0.01019740	      3.57767386	    -10.42611808	     -7.49356285	     -4.27751649	      0.75899080	      3.52246943	      3.17123152	     -9.43512073	     14.16511565	     17.46028460	     86.07442917	      2.01987007	     -7.23265126	     10.22253599	     16.61834919	     85.30488487
      0.21666670	     -0.37148619	     -1.43092354	     -0.85132988	      0.72075658	      1.25725322	      0.06363191	     -3.05301664	      2.65325787	      2.18401143	      1.18687886	      0.02071494	      4.32189571	    -15.91543289	     -7.49806553	     -3.43793974	     -0.90683302	      6.96662702	      0.52351579	      0.00913707	      3.30466057	    -10.37886645	     -7.49806553	     -4.49730287	      0.67580654	      3.43094606	      2.81300724	     -9.30812748	     11.05932183	     17.89705991	     94.77659703	      2.22738546	     -7.29798962	     10.16464415	     16.69762601	     93.27589604
      0.23333330	     -0.37285384	     -1.41543259	     -0.73121602	      0.72072429	      1.25687636	      0.06351914	     -3.10054158	      2.62606401	      2.10131636	      1.21458079	      0.02119843	      4.33779588	    -15.97992675	     -7.49856105	     -3.51148035	     -0.90104253	      6.98230668	      0.51940685	      0.00906536	      3.22082604	    -10.35260052	     -7.49856105	     -4.44042845	      0.65147523	      3.28358304	      2.80560225	     -9.30719860	     11.76630878	     17.71008837	     92.22179274	      2.19880167	     -7.28237916	     10.61470492	     16.48638712	     90.88719611
      0.25000000	     -0.20833847	     -1.37141289	     -0.64305552	      0.71997161	      1.25464923	      0.06376454	     -3.32543659	      2.56664252	      2.10518352	      1.20334479	      0.02100233	      4.30123174	    -16.09141386	     -7.49882240	     -3.74252115	     -0.85673512	      6.98508367	      0.51530291	      0.00899373	      3.27496063	    -10.20285113	     -7.49882240	     -4.66593220	      0.57053101	      3.20170938	      2.68358464	     -9.29282608	     11.91858290	     17.99273070	     89.75489943	      2.22105893	     -7.27828088	     10.71921300	     16.68663158	     88.52997781
      0.26666670	     -0.25524277	     -1.37768239	     -0.50287274	      0.72040028	      1.25695422	      0.06352854	     -3.31381749	      2.56822867	      1.94056984	      1.22171236	      0.02132290	      4.48998177	    -15.77861366	     -7.49930021	     -3.75796936	     -0.87736309	      6.97561757	      0.51731888	      0.00902892	      3.15918203	    -10.06628275	     -7.49930021	     -4.53746879	      0.60364268	      3.22155809	      2.45441544	     -9.28997598	     11.03198201	     18.11549400	     94.12094822	      2.36005752	     -7.41422799	     11.98390941	     16.60614693	     92.55467911
      0.28333330	     -0.09953175	     -1.34105663	     -0.41586387	      0.72006202	      1.25730883	      0.06355089	     -3.51279252	      2.52583973	      1.94805346	      1.20509809	      0.02103293	      4.58604456	    -15.75905994	     -7.49946525	     -3.98344309	     -0.84859100	      7.00546759	      0.50985316	      0.00889862	      3.26902789	    -10.03280879	     -7.49946525	     -4.76349223	      0.53431251	      3.04611656	      2.47047404	     -9.22137824	     11.28388588	     18.14277105	     91.17682338	      2.40167252	     -7.37337928	     11.95321081	     16.60055706	     89.71762339
      0.30000000	     -0.26807105	     -1.30588313	     -0.33347933	      0.72029005	      1.25661892	      0.06347363	     -3.35928440	      2.48163482	      2.00816662	      1.21605634	      0.02122419	      4.47858751	    -15.95007088	     -7.49952500	     -3.83826881	     -0.81776723	      7.21914077	      0.51978373	      0.00907194	      3.11365129	    -10.31121430	     -7.49952500	     -4.43754038	      0.51123373	      2.94359578	      2.49313970	     -9.23394286	     12.06098306	     17.76542662	     91.78950610	      2.45442790	     -7.45679277	     13.22507987	     16.36790667	     90.22316993
